STARTFONT 2.1
FONT -null-null-R-null--14-14-75-75-c-80-iso10646-1
SIZE 14 75 75
FONTBOUNDINGBOX 18 19 -8 -8
STARTPROPERTIES 6
COPYRIGHT "Roboto Matrix font by Gissio. Based on Google Roboto."
FONT_ASCENT 11
FONT_DESCENT 3
POINT_SIZE 14
X_HEIGHT 6
CAP_HEIGHT 8
ENDPROPERTIES
CHARS 196
STARTCHAR U+0020
ENCODING 32
SWIDTH 111 0
DWIDTH 2 0
BBX 0 0 0 0
BITMAP
ENDCHAR
STARTCHAR U+0021
ENCODING 33
SWIDTH 111 0
DWIDTH 2 0
BBX 1 8 0 0
BITMAP
80
80
80
80
80
80
00
80
ENDCHAR
STARTCHAR U+0022
ENCODING 34
SWIDTH 222 0
DWIDTH 4 0
BBX 3 3 0 5
BITMAP
A0
A0
A0
ENDCHAR
STARTCHAR U+0023
ENCODING 35
SWIDTH 388 0
DWIDTH 7 0
BBX 7 8 0 0
BITMAP
14
14
7E
28
28
FC
50
50
ENDCHAR
STARTCHAR U+0024
ENCODING 36
SWIDTH 333 0
DWIDTH 6 0
BBX 5 10 0 -1
BITMAP
20
70
88
80
70
08
08
88
70
20
ENDCHAR
STARTCHAR U+0025
ENCODING 37
SWIDTH 500 0
DWIDTH 9 0
BBX 8 8 0 0
BITMAP
60
92
94
68
16
29
49
06
ENDCHAR
STARTCHAR U+0026
ENCODING 38
SWIDTH 388 0
DWIDTH 7 0
BBX 6 8 0 0
BITMAP
60
90
90
60
94
88
88
74
ENDCHAR
STARTCHAR U+0027
ENCODING 39
SWIDTH 111 0
DWIDTH 2 0
BBX 1 2 0 6
BITMAP
80
80
ENDCHAR
STARTCHAR U+0028
ENCODING 40
SWIDTH 222 0
DWIDTH 4 0
BBX 3 11 0 -2
BITMAP
20
40
40
80
80
80
80
80
40
40
20
ENDCHAR
STARTCHAR U+0029
ENCODING 41
SWIDTH 222 0
DWIDTH 4 0
BBX 3 11 0 -2
BITMAP
80
40
40
20
20
20
20
20
40
40
80
ENDCHAR
STARTCHAR U+002A
ENCODING 42
SWIDTH 333 0
DWIDTH 6 0
BBX 5 5 0 3
BITMAP
20
20
F8
20
50
ENDCHAR
STARTCHAR U+002B
ENCODING 43
SWIDTH 333 0
DWIDTH 6 0
BBX 5 5 0 1
BITMAP
20
20
F8
20
20
ENDCHAR
STARTCHAR U+002C
ENCODING 44
SWIDTH 111 0
DWIDTH 2 0
BBX 2 3 -1 -2
BITMAP
40
40
80
ENDCHAR
STARTCHAR U+002D
ENCODING 45
SWIDTH 222 0
DWIDTH 4 0
BBX 3 1 0 3
BITMAP
E0
ENDCHAR
STARTCHAR U+002E
ENCODING 46
SWIDTH 111 0
DWIDTH 2 0
BBX 1 1 0 0
BITMAP
80
ENDCHAR
STARTCHAR U+002F
ENCODING 47
SWIDTH 277 0
DWIDTH 5 0
BBX 4 9 0 -1
BITMAP
10
10
20
20
20
40
40
80
80
ENDCHAR
STARTCHAR U+0030
ENCODING 48
SWIDTH 333 0
DWIDTH 6 0
BBX 5 8 0 0
BITMAP
70
88
88
88
88
88
88
70
ENDCHAR
STARTCHAR U+0031
ENCODING 49
SWIDTH 333 0
DWIDTH 6 0
BBX 3 8 1 0
BITMAP
20
E0
20
20
20
20
20
20
ENDCHAR
STARTCHAR U+0032
ENCODING 50
SWIDTH 333 0
DWIDTH 6 0
BBX 5 8 0 0
BITMAP
70
88
08
10
20
40
80
F8
ENDCHAR
STARTCHAR U+0033
ENCODING 51
SWIDTH 333 0
DWIDTH 6 0
BBX 5 8 0 0
BITMAP
70
88
08
30
08
08
88
70
ENDCHAR
STARTCHAR U+0034
ENCODING 52
SWIDTH 333 0
DWIDTH 6 0
BBX 5 8 0 0
BITMAP
10
30
50
50
90
F8
10
10
ENDCHAR
STARTCHAR U+0035
ENCODING 53
SWIDTH 333 0
DWIDTH 6 0
BBX 5 8 0 0
BITMAP
F8
80
80
F0
08
08
88
70
ENDCHAR
STARTCHAR U+0036
ENCODING 54
SWIDTH 333 0
DWIDTH 6 0
BBX 5 8 0 0
BITMAP
30
40
80
F0
88
88
88
70
ENDCHAR
STARTCHAR U+0037
ENCODING 55
SWIDTH 333 0
DWIDTH 6 0
BBX 5 8 0 0
BITMAP
F8
08
10
10
20
20
40
40
ENDCHAR
STARTCHAR U+0038
ENCODING 56
SWIDTH 333 0
DWIDTH 6 0
BBX 5 8 0 0
BITMAP
70
88
88
70
88
88
88
70
ENDCHAR
STARTCHAR U+0039
ENCODING 57
SWIDTH 333 0
DWIDTH 6 0
BBX 5 8 0 0
BITMAP
70
88
88
88
78
08
10
60
ENDCHAR
STARTCHAR U+003A
ENCODING 58
SWIDTH 111 0
DWIDTH 2 0
BBX 1 6 0 0
BITMAP
80
00
00
00
00
80
ENDCHAR
STARTCHAR U+003B
ENCODING 59
SWIDTH 166 0
DWIDTH 3 0
BBX 2 8 0 -2
BITMAP
40
00
00
00
00
40
40
80
ENDCHAR
STARTCHAR U+003C
ENCODING 60
SWIDTH 333 0
DWIDTH 6 0
BBX 5 5 0 1
BITMAP
18
60
80
60
18
ENDCHAR
STARTCHAR U+003D
ENCODING 61
SWIDTH 277 0
DWIDTH 5 0
BBX 4 3 0 2
BITMAP
F0
00
F0
ENDCHAR
STARTCHAR U+003E
ENCODING 62
SWIDTH 333 0
DWIDTH 6 0
BBX 5 5 0 1
BITMAP
C0
30
08
30
C0
ENDCHAR
STARTCHAR U+003F
ENCODING 63
SWIDTH 333 0
DWIDTH 6 0
BBX 5 8 0 0
BITMAP
70
88
08
10
20
20
00
20
ENDCHAR
STARTCHAR U+0040
ENCODING 64
SWIDTH 500 0
DWIDTH 9 0
BBX 8 10 0 -2
BITMAP
3C
42
99
A5
A5
A5
AD
96
40
3E
ENDCHAR
STARTCHAR U+0041
ENCODING 65
SWIDTH 444 0
DWIDTH 8 0
BBX 7 8 0 0
BITMAP
10
10
28
28
44
7C
82
82
ENDCHAR
STARTCHAR U+0042
ENCODING 66
SWIDTH 333 0
DWIDTH 6 0
BBX 5 8 0 0
BITMAP
F0
88
88
F0
88
88
88
F0
ENDCHAR
STARTCHAR U+0043
ENCODING 67
SWIDTH 388 0
DWIDTH 7 0
BBX 6 8 0 0
BITMAP
78
84
84
80
80
84
84
78
ENDCHAR
STARTCHAR U+0044
ENCODING 68
SWIDTH 388 0
DWIDTH 7 0
BBX 6 8 0 0
BITMAP
F0
88
84
84
84
84
88
F0
ENDCHAR
STARTCHAR U+0045
ENCODING 69
SWIDTH 333 0
DWIDTH 6 0
BBX 5 8 0 0
BITMAP
F8
80
80
F0
80
80
80
F8
ENDCHAR
STARTCHAR U+0046
ENCODING 70
SWIDTH 333 0
DWIDTH 6 0
BBX 5 8 0 0
BITMAP
F8
80
80
F0
80
80
80
80
ENDCHAR
STARTCHAR U+0047
ENCODING 71
SWIDTH 388 0
DWIDTH 7 0
BBX 6 8 0 0
BITMAP
78
84
84
80
9C
84
84
78
ENDCHAR
STARTCHAR U+0048
ENCODING 72
SWIDTH 388 0
DWIDTH 7 0
BBX 6 8 0 0
BITMAP
84
84
84
FC
84
84
84
84
ENDCHAR
STARTCHAR U+0049
ENCODING 73
SWIDTH 111 0
DWIDTH 2 0
BBX 1 8 0 0
BITMAP
80
80
80
80
80
80
80
80
ENDCHAR
STARTCHAR U+004A
ENCODING 74
SWIDTH 333 0
DWIDTH 6 0
BBX 5 8 0 0
BITMAP
08
08
08
08
08
08
88
70
ENDCHAR
STARTCHAR U+004B
ENCODING 75
SWIDTH 388 0
DWIDTH 7 0
BBX 6 8 0 0
BITMAP
84
88
90
A0
D0
88
88
84
ENDCHAR
STARTCHAR U+004C
ENCODING 76
SWIDTH 333 0
DWIDTH 6 0
BBX 5 8 0 0
BITMAP
80
80
80
80
80
80
80
F8
ENDCHAR
STARTCHAR U+004D
ENCODING 77
SWIDTH 444 0
DWIDTH 8 0
BBX 7 8 0 0
BITMAP
82
82
C6
C6
AA
AA
92
92
ENDCHAR
STARTCHAR U+004E
ENCODING 78
SWIDTH 388 0
DWIDTH 7 0
BBX 6 8 0 0
BITMAP
84
C4
C4
A4
94
8C
8C
84
ENDCHAR
STARTCHAR U+004F
ENCODING 79
SWIDTH 388 0
DWIDTH 7 0
BBX 6 8 0 0
BITMAP
78
84
84
84
84
84
84
78
ENDCHAR
STARTCHAR U+0050
ENCODING 80
SWIDTH 388 0
DWIDTH 7 0
BBX 6 8 0 0
BITMAP
F8
84
84
84
F8
80
80
80
ENDCHAR
STARTCHAR U+0051
ENCODING 81
SWIDTH 388 0
DWIDTH 7 0
BBX 6 9 0 -1
BITMAP
78
84
84
84
84
84
84
78
0C
ENDCHAR
STARTCHAR U+0052
ENCODING 82
SWIDTH 333 0
DWIDTH 6 0
BBX 5 8 0 0
BITMAP
F0
88
88
88
F0
90
88
88
ENDCHAR
STARTCHAR U+0053
ENCODING 83
SWIDTH 333 0
DWIDTH 6 0
BBX 5 8 0 0
BITMAP
70
88
80
70
08
08
88
70
ENDCHAR
STARTCHAR U+0054
ENCODING 84
SWIDTH 444 0
DWIDTH 8 0
BBX 7 8 0 0
BITMAP
FE
10
10
10
10
10
10
10
ENDCHAR
STARTCHAR U+0055
ENCODING 85
SWIDTH 388 0
DWIDTH 7 0
BBX 6 8 0 0
BITMAP
84
84
84
84
84
84
84
78
ENDCHAR
STARTCHAR U+0056
ENCODING 86
SWIDTH 444 0
DWIDTH 8 0
BBX 7 8 0 0
BITMAP
82
82
44
44
28
28
10
10
ENDCHAR
STARTCHAR U+0057
ENCODING 87
SWIDTH 555 0
DWIDTH 10 0
BBX 9 8 0 0
BITMAP
8880
8880
4900
5500
5500
2200
2200
2200
ENDCHAR
STARTCHAR U+0058
ENCODING 88
SWIDTH 388 0
DWIDTH 7 0
BBX 6 8 0 0
BITMAP
84
48
48
30
30
48
48
84
ENDCHAR
STARTCHAR U+0059
ENCODING 89
SWIDTH 444 0
DWIDTH 8 0
BBX 7 8 0 0
BITMAP
82
44
44
28
10
10
10
10
ENDCHAR
STARTCHAR U+005A
ENCODING 90
SWIDTH 388 0
DWIDTH 7 0
BBX 6 8 0 0
BITMAP
FC
04
08
10
20
40
80
FC
ENDCHAR
STARTCHAR U+005B
ENCODING 91
SWIDTH 166 0
DWIDTH 3 0
BBX 2 11 0 -2
BITMAP
C0
80
80
80
80
80
80
80
80
80
C0
ENDCHAR
STARTCHAR U+005C
ENCODING 92
SWIDTH 277 0
DWIDTH 5 0
BBX 4 9 0 -1
BITMAP
80
80
40
40
40
20
20
10
10
ENDCHAR
STARTCHAR U+005D
ENCODING 93
SWIDTH 166 0
DWIDTH 3 0
BBX 2 11 0 -2
BITMAP
C0
40
40
40
40
40
40
40
40
40
C0
ENDCHAR
STARTCHAR U+005E
ENCODING 94
SWIDTH 333 0
DWIDTH 6 0
BBX 5 4 0 4
BITMAP
20
50
50
88
ENDCHAR
STARTCHAR U+005F
ENCODING 95
SWIDTH 333 0
DWIDTH 6 0
BBX 5 1 0 -1
BITMAP
F8
ENDCHAR
STARTCHAR U+0060
ENCODING 96
SWIDTH 166 0
DWIDTH 3 0
BBX 2 2 0 6
BITMAP
80
40
ENDCHAR
STARTCHAR U+0061
ENCODING 97
SWIDTH 333 0
DWIDTH 6 0
BBX 5 6 0 0
BITMAP
70
88
78
88
88
78
ENDCHAR
STARTCHAR U+0062
ENCODING 98
SWIDTH 333 0
DWIDTH 6 0
BBX 5 8 0 0
BITMAP
80
80
F0
88
88
88
88
F0
ENDCHAR
STARTCHAR U+0063
ENCODING 99
SWIDTH 333 0
DWIDTH 6 0
BBX 5 6 0 0
BITMAP
70
88
80
80
88
70
ENDCHAR
STARTCHAR U+0064
ENCODING 100
SWIDTH 333 0
DWIDTH 6 0
BBX 5 8 0 0
BITMAP
08
08
78
88
88
88
88
78
ENDCHAR
STARTCHAR U+0065
ENCODING 101
SWIDTH 333 0
DWIDTH 6 0
BBX 5 6 0 0
BITMAP
70
88
F8
80
88
70
ENDCHAR
STARTCHAR U+0066
ENCODING 102
SWIDTH 222 0
DWIDTH 4 0
BBX 4 9 0 0
BITMAP
30
40
40
E0
40
40
40
40
40
ENDCHAR
STARTCHAR U+0067
ENCODING 103
SWIDTH 333 0
DWIDTH 6 0
BBX 5 8 0 -2
BITMAP
78
88
88
88
88
78
08
70
ENDCHAR
STARTCHAR U+0068
ENCODING 104
SWIDTH 333 0
DWIDTH 6 0
BBX 5 8 0 0
BITMAP
80
80
F0
88
88
88
88
88
ENDCHAR
STARTCHAR U+0069
ENCODING 105
SWIDTH 111 0
DWIDTH 2 0
BBX 1 8 0 0
BITMAP
80
00
80
80
80
80
80
80
ENDCHAR
STARTCHAR U+006A
ENCODING 106
SWIDTH 111 0
DWIDTH 2 0
BBX 2 10 -1 -2
BITMAP
40
00
40
40
40
40
40
40
40
80
ENDCHAR
STARTCHAR U+006B
ENCODING 107
SWIDTH 333 0
DWIDTH 6 0
BBX 5 8 0 0
BITMAP
80
80
88
90
A0
D0
90
88
ENDCHAR
STARTCHAR U+006C
ENCODING 108
SWIDTH 111 0
DWIDTH 2 0
BBX 1 8 0 0
BITMAP
80
80
80
80
80
80
80
80
ENDCHAR
STARTCHAR U+006D
ENCODING 109
SWIDTH 555 0
DWIDTH 10 0
BBX 9 6 0 0
BITMAP
B700
C880
8880
8880
8880
8880
ENDCHAR
STARTCHAR U+006E
ENCODING 110
SWIDTH 333 0
DWIDTH 6 0
BBX 5 6 0 0
BITMAP
B0
C8
88
88
88
88
ENDCHAR
STARTCHAR U+006F
ENCODING 111
SWIDTH 333 0
DWIDTH 6 0
BBX 5 6 0 0
BITMAP
70
88
88
88
88
70
ENDCHAR
STARTCHAR U+0070
ENCODING 112
SWIDTH 333 0
DWIDTH 6 0
BBX 5 8 0 -2
BITMAP
F0
88
88
88
88
F0
80
80
ENDCHAR
STARTCHAR U+0071
ENCODING 113
SWIDTH 333 0
DWIDTH 6 0
BBX 5 8 0 -2
BITMAP
78
88
88
88
88
78
08
08
ENDCHAR
STARTCHAR U+0072
ENCODING 114
SWIDTH 222 0
DWIDTH 4 0
BBX 3 6 0 0
BITMAP
A0
C0
80
80
80
80
ENDCHAR
STARTCHAR U+0073
ENCODING 115
SWIDTH 333 0
DWIDTH 6 0
BBX 5 6 0 0
BITMAP
70
88
70
08
88
70
ENDCHAR
STARTCHAR U+0074
ENCODING 116
SWIDTH 222 0
DWIDTH 4 0
BBX 3 7 0 0
BITMAP
40
E0
40
40
40
40
20
ENDCHAR
STARTCHAR U+0075
ENCODING 117
SWIDTH 333 0
DWIDTH 6 0
BBX 5 6 0 0
BITMAP
88
88
88
88
98
68
ENDCHAR
STARTCHAR U+0076
ENCODING 118
SWIDTH 333 0
DWIDTH 6 0
BBX 5 6 0 0
BITMAP
88
88
50
50
20
20
ENDCHAR
STARTCHAR U+0077
ENCODING 119
SWIDTH 555 0
DWIDTH 10 0
BBX 9 6 0 0
BITMAP
8880
8880
5500
5500
2200
2200
ENDCHAR
STARTCHAR U+0078
ENCODING 120
SWIDTH 333 0
DWIDTH 6 0
BBX 5 6 0 0
BITMAP
88
50
20
20
50
88
ENDCHAR
STARTCHAR U+0079
ENCODING 121
SWIDTH 333 0
DWIDTH 6 0
BBX 5 8 0 -2
BITMAP
88
88
50
50
20
20
20
C0
ENDCHAR
STARTCHAR U+007A
ENCODING 122
SWIDTH 333 0
DWIDTH 6 0
BBX 5 6 0 0
BITMAP
F8
10
20
40
80
F8
ENDCHAR
STARTCHAR U+007B
ENCODING 123
SWIDTH 222 0
DWIDTH 4 0
BBX 3 11 0 -2
BITMAP
20
40
40
40
40
80
40
40
40
40
20
ENDCHAR
STARTCHAR U+007C
ENCODING 124
SWIDTH 111 0
DWIDTH 2 0
BBX 1 9 0 -1
BITMAP
80
80
80
80
80
80
80
80
80
ENDCHAR
STARTCHAR U+007D
ENCODING 125
SWIDTH 222 0
DWIDTH 4 0
BBX 3 11 0 -2
BITMAP
80
40
40
40
40
20
40
40
40
40
80
ENDCHAR
STARTCHAR U+007E
ENCODING 126
SWIDTH 388 0
DWIDTH 7 0
BBX 6 2 0 2
BITMAP
64
98
ENDCHAR
STARTCHAR U+007F
ENCODING 127
SWIDTH 55 0
DWIDTH 1 0
BBX 0 0 0 0
BITMAP
ENDCHAR
STARTCHAR U+0080
ENCODING 128
SWIDTH 277 0
DWIDTH 5 0
BBX 4 7 0 0
BITMAP
80
C0
E0
F0
E0
C0
80
ENDCHAR
STARTCHAR U+0081
ENCODING 129
SWIDTH 444 0
DWIDTH 8 0
BBX 7 5 0 1
BITMAP
02
04
88
50
20
ENDCHAR
STARTCHAR U+0082
ENCODING 130
SWIDTH 277 0
DWIDTH 5 0
BBX 4 4 0 2
BITMAP
60
90
90
60
ENDCHAR
STARTCHAR U+0083
ENCODING 131
SWIDTH 277 0
DWIDTH 5 0
BBX 4 4 0 2
BITMAP
60
F0
F0
60
ENDCHAR
STARTCHAR U+00A0
ENCODING 160
SWIDTH 55 0
DWIDTH 1 0
BBX 0 0 0 0
BITMAP
ENDCHAR
STARTCHAR U+00A1
ENCODING 161
SWIDTH 111 0
DWIDTH 2 0
BBX 1 8 0 -2
BITMAP
80
00
80
80
80
80
80
80
ENDCHAR
STARTCHAR U+00A2
ENCODING 162
SWIDTH 333 0
DWIDTH 6 0
BBX 5 8 0 -1
BITMAP
20
70
88
80
80
88
70
20
ENDCHAR
STARTCHAR U+00A3
ENCODING 163
SWIDTH 388 0
DWIDTH 7 0
BBX 6 8 0 0
BITMAP
38
44
40
40
F0
40
40
FC
ENDCHAR
STARTCHAR U+00A4
ENCODING 164
SWIDTH 388 0
DWIDTH 7 0
BBX 6 7 0 0
BITMAP
B4
48
84
84
84
48
B4
ENDCHAR
STARTCHAR U+00A5
ENCODING 165
SWIDTH 444 0
DWIDTH 8 0
BBX 7 8 0 0
BITMAP
82
44
44
28
7C
10
7C
10
ENDCHAR
STARTCHAR U+00A6
ENCODING 166
SWIDTH 111 0
DWIDTH 2 0
BBX 1 9 0 -1
BITMAP
80
80
80
80
00
80
80
80
80
ENDCHAR
STARTCHAR U+00A7
ENCODING 167
SWIDTH 333 0
DWIDTH 6 0
BBX 5 11 0 -3
BITMAP
70
88
80
60
90
88
48
30
08
88
70
ENDCHAR
STARTCHAR U+00A8
ENCODING 168
SWIDTH 222 0
DWIDTH 4 0
BBX 3 1 0 7
BITMAP
A0
ENDCHAR
STARTCHAR U+00A9
ENCODING 169
SWIDTH 444 0
DWIDTH 8 0
BBX 7 8 0 0
BITMAP
38
44
9A
A2
A2
9A
44
38
ENDCHAR
STARTCHAR U+00AA
ENCODING 170
SWIDTH 222 0
DWIDTH 4 0
BBX 3 4 0 4
BITMAP
60
A0
A0
60
ENDCHAR
STARTCHAR U+00AB
ENCODING 171
SWIDTH 333 0
DWIDTH 6 0
BBX 5 4 0 1
BITMAP
48
90
90
48
ENDCHAR
STARTCHAR U+00AC
ENCODING 172
SWIDTH 277 0
DWIDTH 5 0
BBX 4 2 0 2
BITMAP
F0
10
ENDCHAR
STARTCHAR U+00AD
ENCODING 173
SWIDTH 222 0
DWIDTH 4 0
BBX 3 1 0 3
BITMAP
E0
ENDCHAR
STARTCHAR U+00AE
ENCODING 174
SWIDTH 444 0
DWIDTH 8 0
BBX 7 8 0 0
BITMAP
38
44
B2
AA
B2
AA
44
38
ENDCHAR
STARTCHAR U+00AF
ENCODING 175
SWIDTH 222 0
DWIDTH 4 0
BBX 3 1 0 7
BITMAP
E0
ENDCHAR
STARTCHAR U+00B0
ENCODING 176
SWIDTH 222 0
DWIDTH 4 0
BBX 3 3 0 5
BITMAP
40
A0
40
ENDCHAR
STARTCHAR U+00B1
ENCODING 177
SWIDTH 333 0
DWIDTH 6 0
BBX 5 7 0 0
BITMAP
20
20
F8
20
20
00
F8
ENDCHAR
STARTCHAR U+00B2
ENCODING 178
SWIDTH 222 0
DWIDTH 4 0
BBX 3 4 0 4
BITMAP
C0
20
40
E0
ENDCHAR
STARTCHAR U+00B3
ENCODING 179
SWIDTH 222 0
DWIDTH 4 0
BBX 3 4 0 4
BITMAP
E0
60
20
C0
ENDCHAR
STARTCHAR U+00B4
ENCODING 180
SWIDTH 166 0
DWIDTH 3 0
BBX 2 2 0 7
BITMAP
40
80
ENDCHAR
STARTCHAR U+00B5
ENCODING 181
SWIDTH 333 0
DWIDTH 6 0
BBX 5 8 0 -2
BITMAP
88
88
88
88
88
F0
80
80
ENDCHAR
STARTCHAR U+00B6
ENCODING 182
SWIDTH 277 0
DWIDTH 5 0
BBX 4 8 0 0
BITMAP
70
F0
F0
F0
70
10
10
10
ENDCHAR
STARTCHAR U+00B7
ENCODING 183
SWIDTH 111 0
DWIDTH 2 0
BBX 1 1 0 4
BITMAP
80
ENDCHAR
STARTCHAR U+00B8
ENCODING 184
SWIDTH 166 0
DWIDTH 3 0
BBX 2 3 0 -3
BITMAP
80
40
80
ENDCHAR
STARTCHAR U+00B9
ENCODING 185
SWIDTH 166 0
DWIDTH 3 0
BBX 2 4 0 4
BITMAP
40
C0
40
40
ENDCHAR
STARTCHAR U+00BA
ENCODING 186
SWIDTH 222 0
DWIDTH 4 0
BBX 3 4 0 4
BITMAP
40
A0
A0
40
ENDCHAR
STARTCHAR U+00BB
ENCODING 187
SWIDTH 333 0
DWIDTH 6 0
BBX 5 4 0 1
BITMAP
90
48
48
90
ENDCHAR
STARTCHAR U+00BC
ENCODING 188
SWIDTH 444 0
DWIDTH 8 0
BBX 7 8 0 0
BITMAP
40
C4
48
50
12
26
4E
02
ENDCHAR
STARTCHAR U+00BD
ENCODING 189
SWIDTH 500 0
DWIDTH 9 0
BBX 8 8 0 0
BITMAP
40
C4
48
50
16
21
42
07
ENDCHAR
STARTCHAR U+00BE
ENCODING 190
SWIDTH 444 0
DWIDTH 8 0
BBX 7 8 0 0
BITMAP
E0
44
28
D0
12
26
4E
02
ENDCHAR
STARTCHAR U+00BF
ENCODING 191
SWIDTH 333 0
DWIDTH 6 0
BBX 5 8 0 -2
BITMAP
20
00
20
20
40
80
88
70
ENDCHAR
STARTCHAR U+00C0
ENCODING 192
SWIDTH 444 0
DWIDTH 8 0
BBX 7 11 0 0
BITMAP
20
10
00
10
10
28
28
44
7C
82
82
ENDCHAR
STARTCHAR U+00C1
ENCODING 193
SWIDTH 444 0
DWIDTH 8 0
BBX 7 11 0 0
BITMAP
08
10
00
10
10
28
28
44
7C
82
82
ENDCHAR
STARTCHAR U+00C2
ENCODING 194
SWIDTH 444 0
DWIDTH 8 0
BBX 7 11 0 0
BITMAP
10
28
00
10
10
28
28
44
7C
82
82
ENDCHAR
STARTCHAR U+00C3
ENCODING 195
SWIDTH 444 0
DWIDTH 8 0
BBX 7 11 0 0
BITMAP
14
28
00
10
10
28
28
44
7C
82
82
ENDCHAR
STARTCHAR U+00C4
ENCODING 196
SWIDTH 444 0
DWIDTH 8 0
BBX 7 10 0 0
BITMAP
28
00
10
10
28
28
44
7C
82
82
ENDCHAR
STARTCHAR U+00C5
ENCODING 197
SWIDTH 444 0
DWIDTH 8 0
BBX 7 10 0 0
BITMAP
10
28
10
10
28
28
44
7C
82
82
ENDCHAR
STARTCHAR U+00C6
ENCODING 198
SWIDTH 611 0
DWIDTH 11 0
BBX 10 8 0 0
BITMAP
0FC0
0C00
1400
1780
2400
7C00
4400
87C0
ENDCHAR
STARTCHAR U+00C7
ENCODING 199
SWIDTH 388 0
DWIDTH 7 0
BBX 6 11 0 -3
BITMAP
78
84
84
80
80
84
84
78
30
10
20
ENDCHAR
STARTCHAR U+00C8
ENCODING 200
SWIDTH 333 0
DWIDTH 6 0
BBX 5 11 0 0
BITMAP
40
20
00
F8
80
80
F0
80
80
80
F8
ENDCHAR
STARTCHAR U+00C9
ENCODING 201
SWIDTH 333 0
DWIDTH 6 0
BBX 5 11 0 0
BITMAP
10
20
00
F8
80
80
F0
80
80
80
F8
ENDCHAR
STARTCHAR U+00CA
ENCODING 202
SWIDTH 333 0
DWIDTH 6 0
BBX 5 11 0 0
BITMAP
20
50
00
F8
80
80
F0
80
80
80
F8
ENDCHAR
STARTCHAR U+00CB
ENCODING 203
SWIDTH 333 0
DWIDTH 6 0
BBX 5 10 0 0
BITMAP
50
00
F8
80
80
F0
80
80
80
F8
ENDCHAR
STARTCHAR U+00CC
ENCODING 204
SWIDTH 111 0
DWIDTH 2 0
BBX 2 11 -1 0
BITMAP
80
40
00
40
40
40
40
40
40
40
40
ENDCHAR
STARTCHAR U+00CD
ENCODING 205
SWIDTH 111 0
DWIDTH 2 0
BBX 2 11 0 0
BITMAP
40
80
00
80
80
80
80
80
80
80
80
ENDCHAR
STARTCHAR U+00CE
ENCODING 206
SWIDTH 111 0
DWIDTH 2 0
BBX 10 19 -8 -8
BITMAP
0080
0140
0000
0080
0080
0080
0080
0080
0080
0080
0080
0000
0000
0000
0000
0000
0000
0000
8000
ENDCHAR
STARTCHAR U+00CF
ENCODING 207
SWIDTH 111 0
DWIDTH 2 0
BBX 3 10 -1 0
BITMAP
A0
00
40
40
40
40
40
40
40
40
ENDCHAR
STARTCHAR U+00D0
ENCODING 208
SWIDTH 444 0
DWIDTH 8 0
BBX 7 8 0 0
BITMAP
78
44
42
E2
42
42
44
78
ENDCHAR
STARTCHAR U+00D1
ENCODING 209
SWIDTH 388 0
DWIDTH 7 0
BBX 6 11 0 0
BITMAP
28
50
00
84
C4
C4
A4
94
8C
8C
84
ENDCHAR
STARTCHAR U+00D2
ENCODING 210
SWIDTH 388 0
DWIDTH 7 0
BBX 6 11 0 0
BITMAP
20
10
00
78
84
84
84
84
84
84
78
ENDCHAR
STARTCHAR U+00D3
ENCODING 211
SWIDTH 388 0
DWIDTH 7 0
BBX 6 11 0 0
BITMAP
10
20
00
78
84
84
84
84
84
84
78
ENDCHAR
STARTCHAR U+00D4
ENCODING 212
SWIDTH 388 0
DWIDTH 7 0
BBX 6 11 0 0
BITMAP
30
48
00
78
84
84
84
84
84
84
78
ENDCHAR
STARTCHAR U+00D5
ENCODING 213
SWIDTH 388 0
DWIDTH 7 0
BBX 6 11 0 0
BITMAP
28
50
00
78
84
84
84
84
84
84
78
ENDCHAR
STARTCHAR U+00D6
ENCODING 214
SWIDTH 388 0
DWIDTH 7 0
BBX 6 10 0 0
BITMAP
48
00
78
84
84
84
84
84
84
78
ENDCHAR
STARTCHAR U+00D7
ENCODING 215
SWIDTH 333 0
DWIDTH 6 0
BBX 5 5 0 1
BITMAP
88
50
20
50
88
ENDCHAR
STARTCHAR U+00D8
ENCODING 216
SWIDTH 388 0
DWIDTH 7 0
BBX 6 10 0 -1
BITMAP
04
78
8C
94
94
A4
A4
C4
78
80
ENDCHAR
STARTCHAR U+00D9
ENCODING 217
SWIDTH 388 0
DWIDTH 7 0
BBX 6 11 0 0
BITMAP
20
10
00
84
84
84
84
84
84
84
78
ENDCHAR
STARTCHAR U+00DA
ENCODING 218
SWIDTH 388 0
DWIDTH 7 0
BBX 6 11 0 0
BITMAP
10
20
00
84
84
84
84
84
84
84
78
ENDCHAR
STARTCHAR U+00DB
ENCODING 219
SWIDTH 388 0
DWIDTH 7 0
BBX 6 11 0 0
BITMAP
30
48
00
84
84
84
84
84
84
84
78
ENDCHAR
STARTCHAR U+00DC
ENCODING 220
SWIDTH 388 0
DWIDTH 7 0
BBX 6 10 0 0
BITMAP
48
00
84
84
84
84
84
84
84
78
ENDCHAR
STARTCHAR U+00DD
ENCODING 221
SWIDTH 444 0
DWIDTH 8 0
BBX 7 11 0 0
BITMAP
08
10
00
82
44
44
28
10
10
10
10
ENDCHAR
STARTCHAR U+00DE
ENCODING 222
SWIDTH 333 0
DWIDTH 6 0
BBX 5 8 0 0
BITMAP
80
80
F0
88
88
F0
80
80
ENDCHAR
STARTCHAR U+00DF
ENCODING 223
SWIDTH 388 0
DWIDTH 7 0
BBX 6 8 0 0
BITMAP
70
88
88
90
88
84
84
B8
ENDCHAR
STARTCHAR U+00E0
ENCODING 224
SWIDTH 333 0
DWIDTH 6 0
BBX 5 9 0 0
BITMAP
40
20
00
70
88
78
88
88
78
ENDCHAR
STARTCHAR U+00E1
ENCODING 225
SWIDTH 333 0
DWIDTH 6 0
BBX 5 9 0 0
BITMAP
10
20
00
70
88
78
88
88
78
ENDCHAR
STARTCHAR U+00E2
ENCODING 226
SWIDTH 333 0
DWIDTH 6 0
BBX 5 9 0 0
BITMAP
20
50
00
70
88
78
88
88
78
ENDCHAR
STARTCHAR U+00E3
ENCODING 227
SWIDTH 333 0
DWIDTH 6 0
BBX 5 9 0 0
BITMAP
28
50
00
70
88
78
88
88
78
ENDCHAR
STARTCHAR U+00E4
ENCODING 228
SWIDTH 333 0
DWIDTH 6 0
BBX 5 8 0 0
BITMAP
50
00
70
88
78
88
88
78
ENDCHAR
STARTCHAR U+00E5
ENCODING 229
SWIDTH 333 0
DWIDTH 6 0
BBX 5 10 0 0
BITMAP
20
50
20
00
70
88
78
88
88
78
ENDCHAR
STARTCHAR U+00E6
ENCODING 230
SWIDTH 555 0
DWIDTH 10 0
BBX 9 6 0 0
BITMAP
7700
8880
7F80
8800
8800
7780
ENDCHAR
STARTCHAR U+00E7
ENCODING 231
SWIDTH 333 0
DWIDTH 6 0
BBX 5 9 0 -3
BITMAP
70
88
80
80
88
70
30
10
20
ENDCHAR
STARTCHAR U+00E8
ENCODING 232
SWIDTH 333 0
DWIDTH 6 0
BBX 5 9 0 0
BITMAP
40
20
00
70
88
F8
80
88
70
ENDCHAR
STARTCHAR U+00E9
ENCODING 233
SWIDTH 333 0
DWIDTH 6 0
BBX 5 9 0 0
BITMAP
10
20
00
70
88
F8
80
88
70
ENDCHAR
STARTCHAR U+00EA
ENCODING 234
SWIDTH 333 0
DWIDTH 6 0
BBX 5 9 0 0
BITMAP
20
50
00
70
88
F8
80
88
70
ENDCHAR
STARTCHAR U+00EB
ENCODING 235
SWIDTH 333 0
DWIDTH 6 0
BBX 5 8 0 0
BITMAP
50
00
70
88
F8
80
88
70
ENDCHAR
STARTCHAR U+00EC
ENCODING 236
SWIDTH 111 0
DWIDTH 2 0
BBX 2 9 -1 0
BITMAP
80
40
00
40
40
40
40
40
40
ENDCHAR
STARTCHAR U+00ED
ENCODING 237
SWIDTH 111 0
DWIDTH 2 0
BBX 2 9 0 0
BITMAP
40
80
00
80
80
80
80
80
80
ENDCHAR
STARTCHAR U+00EE
ENCODING 238
SWIDTH 111 0
DWIDTH 2 0
BBX 3 9 -1 0
BITMAP
40
A0
00
40
40
40
40
40
40
ENDCHAR
STARTCHAR U+00EF
ENCODING 239
SWIDTH 111 0
DWIDTH 2 0
BBX 3 8 -1 0
BITMAP
A0
00
40
40
40
40
40
40
ENDCHAR
STARTCHAR U+00F0
ENCODING 240
SWIDTH 333 0
DWIDTH 6 0
BBX 5 9 0 0
BITMAP
28
30
08
78
88
88
88
88
70
ENDCHAR
STARTCHAR U+00F1
ENCODING 241
SWIDTH 333 0
DWIDTH 6 0
BBX 5 9 0 0
BITMAP
28
50
00
B0
C8
88
88
88
88
ENDCHAR
STARTCHAR U+00F2
ENCODING 242
SWIDTH 333 0
DWIDTH 6 0
BBX 5 9 0 0
BITMAP
40
20
00
70
88
88
88
88
70
ENDCHAR
STARTCHAR U+00F3
ENCODING 243
SWIDTH 333 0
DWIDTH 6 0
BBX 5 9 0 0
BITMAP
10
20
00
70
88
88
88
88
70
ENDCHAR
STARTCHAR U+00F4
ENCODING 244
SWIDTH 333 0
DWIDTH 6 0
BBX 5 9 0 0
BITMAP
20
50
00
70
88
88
88
88
70
ENDCHAR
STARTCHAR U+00F5
ENCODING 245
SWIDTH 333 0
DWIDTH 6 0
BBX 5 9 0 0
BITMAP
28
50
00
70
88
88
88
88
70
ENDCHAR
STARTCHAR U+00F6
ENCODING 246
SWIDTH 333 0
DWIDTH 6 0
BBX 5 8 0 0
BITMAP
50
00
70
88
88
88
88
70
ENDCHAR
STARTCHAR U+00F7
ENCODING 247
SWIDTH 333 0
DWIDTH 6 0
BBX 5 5 0 1
BITMAP
20
00
F8
00
20
ENDCHAR
STARTCHAR U+00F8
ENCODING 248
SWIDTH 333 0
DWIDTH 6 0
BBX 5 8 0 -1
BITMAP
08
70
98
A8
A8
C8
70
80
ENDCHAR
STARTCHAR U+00F9
ENCODING 249
SWIDTH 333 0
DWIDTH 6 0
BBX 5 9 0 0
BITMAP
40
20
00
88
88
88
88
98
68
ENDCHAR
STARTCHAR U+00FA
ENCODING 250
SWIDTH 333 0
DWIDTH 6 0
BBX 5 9 0 0
BITMAP
10
20
00
88
88
88
88
98
68
ENDCHAR
STARTCHAR U+00FB
ENCODING 251
SWIDTH 333 0
DWIDTH 6 0
BBX 5 9 0 0
BITMAP
20
50
00
88
88
88
88
98
68
ENDCHAR
STARTCHAR U+00FC
ENCODING 252
SWIDTH 333 0
DWIDTH 6 0
BBX 5 8 0 0
BITMAP
50
00
88
88
88
88
98
68
ENDCHAR
STARTCHAR U+00FD
ENCODING 253
SWIDTH 333 0
DWIDTH 6 0
BBX 5 11 0 -2
BITMAP
10
20
00
88
88
50
50
20
20
20
C0
ENDCHAR
STARTCHAR U+00FE
ENCODING 254
SWIDTH 333 0
DWIDTH 6 0
BBX 5 10 0 -2
BITMAP
80
80
F0
88
88
88
88
F0
80
80
ENDCHAR
STARTCHAR U+00FF
ENCODING 255
SWIDTH 333 0
DWIDTH 6 0
BBX 5 10 0 -2
BITMAP
50
00
88
88
50
50
20
20
20
C0
ENDCHAR
ENDFONT
